# xmcd
#
# Track frame offsets:
#   150
#   13785
#   28731
#   47415
#   62991
#   80341
#   94095
#   110218
#   126645
#   140867
#   159282
#   171060
#   186591
#   203648
#
# Disc length: 2956 seconds
#
# Revision: 0
# Processed by: cddbd v1.5.1PL0 Copyright (c) Steve Scherf et al.
# Submitted via: uFREEDB ActiveX Control 1.5
#
DISCID=cb0b8a0e
DTITLE=Pedro e Thiago - Coração de Aprendiz
DYEAR=2004
DGENRE=Country
TTITLE0=Porque Tudo Acabou
TTITLE1=Vírus do Amor
TTITLE2=Alguém Especial
TTITLE3=Brigas de Amor - (My Love is True)
TTITLE4=Sonho de Verão
TTITLE5=Tudo pra Poder Te Amar
TTITLE6=Coração de Aprendiz
TTITLE7=Louco pra Te Amar
TTITLE8=Quero Te Dizer
TTITLE9=Você pra Mim
TTITLE10=Cama de Solteiro
TTITLE11=Vou Te Encontrar
TTITLE12=Aqueles Olhos
TTITLE13=Deixa a Estrada Me Levar
EXTD=
EXTT0=
EXTT1=
EXTT2=
EXTT3=
EXTT4=
EXTT5=
EXTT6=
EXTT7=
EXTT8=
EXTT9=
EXTT10=
EXTT11=
EXTT12=
EXTT13=
PLAYORDER=
